<svg width="175" height="47" viewBox="0 0 175 47" fill="none" xmlns="http://www.w3.org/2000/svg">
<g clip-path="url(#clip0_1:60)">
<path d="M156.622 4.77104C153.983 6.6393 151.507 8.70853 149.855 11.5162C145.585 18.7701 144.225 26.4672 146.886 34.5989C148.234 38.7191 152.922 41.9585 157.518 42.0585C156.143 36.0181 153.059 31.1893 148.379 27.3181C149.137 26.6691 150.141 26.5412 151.016 27.195C151.901 27.8575 152.756 28.6114 153.453 29.4643C154.855 31.1777 156.141 32.9864 157.529 34.8268C156.918 28.4902 155.121 22.7037 150.66 18.0297C151.54 17.1595 152.716 17.1229 153.45 18.0633C154.495 19.4056 155.38 20.871 156.322 22.2922C156.509 22.5749 156.645 22.8912 156.914 23.3979C157.403 20.9566 156.824 18.8277 156.115 16.8047C155.409 14.7883 154.329 12.9047 153.392 10.9181C154.119 10.2489 155.209 10.3172 155.83 11.2537C156.38 12.0874 156.841 12.9797 157.45 14.0354C157.571 12.2326 157.711 10.6287 157.777 9.02103C157.84 7.47199 157.825 5.91911 157.844 4.36911C158.042 4.36719 158.24 4.36623 158.438 4.36431C158.481 5.49411 158.521 6.62392 158.565 7.75276C158.61 8.90372 158.681 10.0528 158.704 11.2037C158.728 12.3749 158.709 13.547 158.709 14.947C160.195 13.3181 160.566 10.5778 163.789 11.3585C160.435 15.4672 159.158 20.0008 159.388 25.0114C159.819 24.0422 160.189 23.0393 160.695 22.1124C161.412 20.7999 162.172 19.5027 163.024 18.2768C163.662 17.3585 164.396 17.3162 165.468 17.9902C162.082 22.8662 159.953 28.2268 159.407 34.4383C160.199 33.1306 160.766 31.9691 161.541 30.9691C162.561 29.6566 163.66 28.3787 164.885 27.2604C165.94 26.296 166.821 26.3085 167.759 26.9325C162.883 30.822 160.036 35.8085 159.356 42.3556C160.566 42.0864 161.558 41.9671 162.479 41.6412C165.333 40.6296 167.385 38.6604 168.886 36.0643C172.289 30.1758 173.112 18.3326 166.407 11.1614C165.193 9.86238 163.582 8.93641 162.174 7.81238C161.85 7.55372 161.61 7.18642 161.332 6.87007C161.73 6.7018 162.157 6.34219 162.515 6.40276C163.351 6.54507 164.23 6.75469 164.957 7.17103C169.415 9.7191 171.967 13.746 173.079 18.6027C174.905 26.5748 173.593 33.946 167.926 40.1373C166.659 41.52 164.99 42.571 163.401 43.6104C159.923 45.8844 156.291 44.9152 152.982 43.4152C147.646 40.9989 144.617 36.5469 143.776 30.7902C142.863 24.547 143.953 18.5739 146.883 12.9604C148.607 9.65853 151.124 7.09507 154.278 5.16142C154.932 4.76046 155.743 4.61527 156.482 4.35181C156.529 4.49219 156.575 4.63065 156.622 4.77104Z" fill="#C09A63"/>
<path d="M158.132 0.256359C159.249 0.266722 159.981 0.80136 160.024 1.63996C160.069 2.50064 159.313 3.17851 158.208 3.27463C156.78 3.3981 155.895 2.91347 155.87 1.99362C155.841 0.912281 156.711 0.243068 158.132 0.256359Z" fill="#C09A63"/>
<path d="M0.126822 33.3941L1.24221 33.2806C2.21624 33.1941 2.58836 32.9652 2.58836 32.7931V16.3652C2.58836 16.1643 2.41624 16.0787 0.956629 15.9354L0.126822 15.8498L0.0402832 15.6777H8.82778L8.74124 15.8498L7.6249 15.9643C6.65182 16.0498 6.2797 16.2787 6.2797 16.4508V32.8796C6.2797 33.0796 6.45182 33.1662 7.91143 33.3085L8.71336 33.3941L8.79893 33.5662H0.0402832L0.126822 33.3941Z" fill="#1D2945"/>
<path d="M9.57108 33.394L9.99992 33.3661C10.8874 33.3084 11.2018 33.2517 11.2018 32.9075V24.894C11.2018 23.119 11.0018 22.8623 10.0297 22.6335L9.37108 22.4892L9.39896 22.3748L14.4942 21.0008L14.4076 23.4633L14.4653 23.4911C15.6961 22.4325 17.4422 20.944 19.3884 20.944C20.3326 20.944 21.049 21.2594 21.6499 21.8604C22.3076 22.5181 22.5653 23.72 22.5653 25.0084V32.9363C22.5653 33.1084 22.622 33.2229 24.0249 33.3661L24.3393 33.394L24.4249 33.5661H17.6711L17.7566 33.394L18.272 33.3661C19.274 33.3084 19.3307 33.1363 19.3307 32.9075V25.4084C19.3307 23.6354 18.4441 22.9767 16.9557 22.9767C15.8393 22.9767 15.0663 23.3767 14.4374 23.8633V32.9652C14.4374 33.194 14.5797 33.2806 15.6961 33.3661L16.1249 33.394L16.1826 33.5661H9.4855L9.57108 33.394Z" fill="#1D2945"/>
<path d="M34.5854 30.8758V24.0922C33.8989 22.547 32.5537 21.3739 31.4373 21.3739C29.4912 21.3739 28.4893 23.921 28.4893 26.9835C28.4893 29.8739 29.8345 32.1066 31.9806 32.1066C33.1546 32.1066 33.9268 31.5633 34.5854 30.8758ZM34.5854 31.3345L34.5277 31.2768C33.3835 32.7364 31.8383 33.9672 30.0354 33.9672C27.2306 33.9672 24.9402 31.3623 24.9402 27.8422C24.9402 23.1768 28.7181 21.0585 31.7518 21.0585C32.9825 21.0585 33.8421 21.2306 34.5277 21.5739H34.5854V17.5672C34.5854 16.3364 34.3854 16.022 33.4412 15.8499L32.496 15.6778L32.5248 15.5633L37.8191 14.3047V31.1623C37.8191 32.3364 37.9633 32.4787 38.621 32.6508L39.6518 32.8797L39.6229 32.9941L34.5854 33.996V31.3345Z" fill="#1D2945"/>
<path d="M41.1508 17.0517C41.1508 16.1363 41.8383 15.0767 43.1826 15.0767C44.5287 15.0767 45.2152 16.1363 45.2152 17.0517C45.2152 17.9671 44.5287 19.0267 43.1826 19.0267C41.8383 19.0267 41.1508 17.9671 41.1508 17.0517ZM40.121 33.394L40.5499 33.3661C41.4374 33.3084 41.7518 33.2517 41.7518 32.9075V24.894C41.7518 23.12 41.5518 22.8623 40.5787 22.6334L39.921 22.4892L39.9489 22.3748L44.9864 21.0007V32.9652C44.9864 33.194 45.1585 33.2517 46.446 33.3661L46.7614 33.394L46.847 33.5661H40.0354L40.121 33.394Z" fill="#1D2945"/>
<path d="M55.347 25.1806C55.347 22.8047 54.8037 21.2306 53.2297 21.2306C51.9691 21.2306 51.2826 22.5181 51.2826 24.9797C51.2826 27.4979 51.9989 28.8152 53.2864 28.8152C53.9451 28.8152 54.4595 28.4998 54.8105 27.8883C55.1614 27.2768 55.347 26.3681 55.347 25.1806ZM57.923 36.5421C57.923 34.9691 56.7778 34.2816 54.1162 34.196C53.372 34.1671 52.1133 34.2537 51.1682 34.3681C50.1383 34.7691 49.5951 35.7412 49.5951 36.8585C49.5951 38.5748 51.2826 39.8056 53.7441 39.8056C56.2345 39.8056 57.923 38.346 57.923 36.5421ZM47.1614 37.4873C47.1614 35.9412 49.1364 34.9393 50.7393 34.3383V34.3104C48.8499 34.196 47.3912 33.0797 47.3912 31.7633C47.3912 30.1893 49.1364 29.1297 50.7393 28.7287V28.7008C49.222 28.1575 48.0768 26.9547 48.0768 25.1806C48.0768 22.8624 50.4249 20.9441 53.2576 20.9441C54.5739 20.9441 55.7758 21.3451 56.6633 21.9172L60.4133 21.2595L60.1268 22.7181L57.2643 22.3172L57.2364 22.4037C57.9797 23.0335 58.4383 23.9777 58.4383 24.9797C58.4383 27.27 56.1768 29.0729 53.172 29.0729C52.4566 29.0729 51.6835 28.9585 51.2258 28.8729C50.2239 29.0729 49.5653 29.6162 49.5653 30.3316C49.5653 31.1047 50.3672 31.3912 51.9412 31.3912C52.7422 31.3912 54.5739 31.3047 55.6047 31.3047C58.2951 31.3047 59.8691 32.5652 59.8691 34.6825C59.8691 37.8595 56.721 40.321 52.2278 40.321C48.8499 40.321 47.1614 39.3768 47.1614 37.4873Z" fill="#1D2945"/>
<path d="M70.1874 27.5845C70.1874 24.6076 69.6143 22.7759 68.7277 21.8884C68.27 21.4595 67.7547 21.173 66.9816 21.173C64.7777 21.173 63.7479 23.9201 63.7479 27.2124C63.7479 30.247 64.2912 32.0778 65.1787 32.9941C65.6652 33.4806 66.2085 33.7095 66.9537 33.7095C69.0431 33.7095 70.1874 30.9903 70.1874 27.5845ZM60.1412 27.4422C60.1412 23.8355 62.9749 20.9153 67.0393 20.9153C71.1316 20.9153 73.822 23.7778 73.822 27.3557C73.822 31.048 71.0172 33.9672 66.9239 33.9672C62.8027 33.9672 60.1412 31.048 60.1412 27.4422Z" fill="#1D2945"/>
<path d="M83.423 20.1998C82.9586 19.1652 82.5028 18.1219 82.0384 17.0883H81.9615L80.5769 20.1998H83.423ZM78.9163 22.2113L81.8009 15.8258C81.8288 15.769 81.8769 15.7209 81.9615 15.7209H82.0567C82.1423 15.7209 82.1894 15.769 82.2173 15.8258L85.0836 22.2113C85.1403 22.3344 85.0644 22.4584 84.9221 22.4584H84.5423C84.4567 22.4584 84.4009 22.4007 84.3807 22.3536L83.6798 20.7873H80.3105L79.6182 22.3536C79.599 22.4007 79.5423 22.4584 79.4567 22.4584H79.0769C78.9346 22.4584 78.8596 22.3344 78.9163 22.2113Z" fill="#1D2945"/>
<path d="M90.5586 19.2316C91.2893 19.2316 91.9249 18.6249 91.9249 17.847C91.9249 17.1258 91.2893 16.5085 90.5586 16.5085H88.7172V19.2316H90.5586ZM87.9682 15.997C87.9682 15.9008 88.0442 15.8152 88.148 15.8152H90.6057C91.7441 15.8152 92.6739 16.7076 92.6739 17.8364C92.6739 18.7095 92.0961 19.4412 91.2701 19.772L92.5701 22.1816C92.6364 22.3056 92.5701 22.4575 92.4086 22.4575H91.9528C91.8393 22.4575 91.7913 22.4104 91.7441 22.3152L90.5105 19.8575H88.698V22.2777C88.698 22.3729 88.6134 22.4575 88.5182 22.4575H88.148C88.0442 22.4575 87.9682 22.3729 87.9682 22.2777V15.997Z" fill="#1D2945"/>
<path d="M97.1335 16.4528H95.4825C95.3787 16.4528 95.3027 16.3662 95.3027 16.272V15.997C95.3027 15.9018 95.3787 15.8162 95.4825 15.8162H99.5066C99.6104 15.8162 99.6864 15.9018 99.6864 15.997V16.272C99.6864 16.3662 99.6104 16.4528 99.5066 16.4528H97.8546V22.2787C97.8546 22.3729 97.77 22.4585 97.6748 22.4585H97.3142C97.22 22.4585 97.1335 22.3729 97.1335 22.2787V16.4528Z" fill="#1D2945"/>
<path d="M102.372 21.4623L102.514 21.2815C102.609 21.1594 102.685 21.1113 102.818 21.2248C102.884 21.2815 103.605 21.918 104.45 21.918C105.218 21.918 105.721 21.4334 105.721 20.8363C105.721 20.1806 105.152 19.8007 104.061 19.3363C103.017 18.8902 102.391 18.4921 102.391 17.4104C102.391 16.7652 102.904 15.7209 104.411 15.7209C105.342 15.7209 106.034 16.2056 106.034 16.2056C106.091 16.2344 106.196 16.3488 106.091 16.5277L105.997 16.6892C105.92 16.8219 105.816 16.8219 105.664 16.7373C105.266 16.4998 104.933 16.3565 104.402 16.3565C103.396 16.3565 103.093 17.0017 103.093 17.4008C103.093 18.0748 103.577 18.3681 104.374 18.7007C105.655 19.2229 106.481 19.7065 106.481 20.8075C106.481 21.794 105.541 22.5536 104.432 22.5536C103.311 22.5536 102.552 21.8988 102.43 21.7844C102.353 21.719 102.238 21.6325 102.372 21.4623Z" fill="#1D2945"/>
<path d="M83.423 31.4133C82.9586 30.3787 82.5028 29.3354 82.0384 28.3008H81.9615L80.5769 31.4133H83.423ZM78.9163 33.4248L81.8009 27.0383C81.8288 26.9825 81.8769 26.9344 81.9615 26.9344H82.0567C82.1423 26.9344 82.1894 26.9825 82.2173 27.0383L85.0836 33.4248C85.1403 33.5479 85.0644 33.6719 84.9221 33.6719H84.5423C84.4567 33.6719 84.4009 33.6142 84.3807 33.5662L83.6798 32.0008H80.3105L79.6182 33.5662C79.599 33.6142 79.5423 33.6719 79.4567 33.6719H79.0769C78.9346 33.6719 78.8596 33.5479 78.9163 33.4248Z" fill="#1D2945"/>
<path d="M87.9682 27.2104C87.9682 27.1143 88.0442 27.0306 88.148 27.0306H88.5182C88.6134 27.0306 88.699 27.1143 88.699 27.2104V33.0364H91.4317C91.5365 33.0364 91.6115 33.1201 91.6115 33.2152V33.4912C91.6115 33.5864 91.5365 33.672 91.4317 33.672H88.148C88.0442 33.672 87.9682 33.5864 87.9682 33.4912V27.2104Z" fill="#1D2945"/>
<path d="M94.5529 27.2104C94.5529 27.1143 94.6288 27.0306 94.7327 27.0306H95.1029C95.1981 27.0306 95.2837 27.1143 95.2837 27.2104V33.0364H98.0163C98.1202 33.0364 98.1962 33.1201 98.1962 33.2152V33.4912C98.1962 33.5864 98.1202 33.672 98.0163 33.672H94.7327C94.6288 33.672 94.5529 33.5864 94.5529 33.4912V27.2104Z" fill="#1D2945"/>
<path d="M101.138 27.2104C101.138 27.1143 101.224 27.0306 101.318 27.0306H101.698C101.794 27.0306 101.88 27.1143 101.88 27.2104V33.4912C101.88 33.5864 101.794 33.672 101.698 33.672H101.318C101.224 33.672 101.138 33.5864 101.138 33.4912V27.2104Z" fill="#1D2945"/>
<path d="M109.259 31.4133C108.796 30.3787 108.34 29.3354 107.875 28.3008H107.799L106.413 31.4133H109.259ZM104.753 33.4248L107.637 27.0383C107.666 26.9825 107.714 26.9344 107.799 26.9344H107.893C107.979 26.9344 108.027 26.9825 108.055 27.0383L110.921 33.4248C110.978 33.5479 110.902 33.6719 110.759 33.6719H110.38C110.294 33.6719 110.238 33.6142 110.218 33.5662L109.517 32.0008H106.148L105.456 33.5662C105.435 33.6142 105.38 33.6719 105.294 33.6719H104.914C104.772 33.6719 104.696 33.5479 104.753 33.4248Z" fill="#1D2945"/>
<path d="M113.806 27.1056C113.806 27.0104 113.891 26.9344 113.985 26.9344H114.129C114.194 26.9344 114.242 26.9537 114.28 27.0104L118.503 32.2671H118.521V27.2104C118.521 27.1152 118.597 27.0306 118.702 27.0306H119.033C119.129 27.0306 119.214 27.1152 119.214 27.2104V33.596C119.214 33.6912 119.129 33.7671 119.033 33.7671H118.957C118.891 33.7671 118.843 33.7469 118.806 33.6912L114.507 28.3296H114.499V33.4921C114.499 33.5864 114.423 33.6719 114.317 33.6719H113.985C113.891 33.6719 113.806 33.5864 113.806 33.4921V27.1056Z" fill="#1D2945"/>
<path d="M125.941 26.9344C126.9 26.9344 127.592 27.2671 128.237 27.8171C128.313 27.8931 128.323 28.0066 128.246 28.0825L127.991 28.3383C127.915 28.4344 127.839 28.4248 127.744 28.3296C127.25 27.9027 126.625 27.6181 125.932 27.6181C124.433 27.6181 123.284 28.8796 123.284 30.3508C123.284 31.8114 124.433 33.0739 125.932 33.0739C126.758 33.0739 127.241 32.7892 127.744 32.3623C127.839 32.2854 127.915 32.296 127.991 32.371L128.208 32.5892C128.285 32.6469 128.266 32.7796 128.2 32.845C127.573 33.4152 126.785 33.7662 125.941 33.7662C124.043 33.7662 122.515 32.2575 122.515 30.3604C122.515 28.4623 124.043 26.9344 125.941 26.9344Z" fill="#1D2945"/>
<path d="M131.53 27.2104C131.53 27.1143 131.606 27.0306 131.709 27.0306H135.448C135.553 27.0306 135.629 27.1143 135.629 27.2104V27.4854C135.629 27.5797 135.553 27.6662 135.448 27.6662H132.26V29.9806H134.983C135.078 29.9806 135.163 30.0662 135.163 30.1604V30.4354C135.163 30.5403 135.078 30.6162 134.983 30.6162H132.26V33.0364H135.448C135.553 33.0364 135.629 33.1201 135.629 33.2152V33.4912C135.629 33.5864 135.553 33.672 135.448 33.672H131.709C131.606 33.672 131.53 33.5864 131.53 33.4912V27.2104Z" fill="#1D2945"/>
</g>
<defs>
<clipPath id="clip0_1:60">
<rect width="175" height="46.2" fill="white"/>
</clipPath>
</defs>
</svg>
