<svg width="176" height="46" viewBox="0 0 176 46" fill="none" xmlns="http://www.w3.org/2000/svg">
<g clip-path="url(#clip0_1:189)">
<path d="M13.5742 12.9035C13.6055 13.4526 14.0605 13.8763 14.594 13.8763C15.1275 13.8763 15.5825 13.4526 15.6139 12.9035L16.1159 4.02294C16.1473 3.59931 15.9904 3.15999 15.6766 2.8305C15.3785 2.53239 14.9863 2.37549 14.594 2.37549C14.2018 2.37549 13.8095 2.53239 13.5114 2.8305C13.1819 3.15999 13.0407 3.59931 13.0721 4.02294L13.5742 12.9035Z" fill="black"/>
<path d="M19.1284 17.6419C18.642 17.3595 18.0144 17.5321 17.732 18.0184C17.1044 19.1011 15.9277 19.8385 14.5783 19.8385C13.229 19.8385 12.0522 19.1011 11.4246 18.0184C11.1422 17.5321 10.5146 17.3595 10.0282 17.6419C9.54182 17.9243 9.36924 18.5519 9.65166 19.0383C10.6244 20.7328 12.4602 21.8782 14.5626 21.8782C16.6651 21.8782 18.5008 20.7328 19.4736 19.0383C19.7874 18.5519 19.6305 17.9243 19.1284 17.6419Z" fill="black"/>
<path d="M10.3891 13.7664C10.5617 14.2842 11.1108 14.5823 11.6286 14.4411C12.1464 14.2999 12.4759 13.7821 12.366 13.2486L10.75 5.4664C10.6715 5.07415 10.4205 4.69758 10.0439 4.47792C9.68306 4.27395 9.29081 4.22688 8.92994 4.33671C8.56907 4.43085 8.23957 4.6662 8.0356 5.02707C7.81594 5.40363 7.78457 5.84295 7.91009 6.2352L10.3891 13.7664Z" fill="black"/>
<path d="M7.7061 15.5551C8.00421 16.0101 8.60043 16.1513 9.07113 15.8846C9.54183 15.6178 9.71442 15.0216 9.46338 14.5352L6.32538 8.30629C6.15279 7.96111 5.8233 7.67869 5.41536 7.56886C5.0388 7.47472 4.64655 7.52179 4.33275 7.71007C4.01895 7.89835 3.76791 8.19646 3.67377 8.57302C3.56394 8.98096 3.64239 9.40459 3.86205 9.71839L7.7061 15.5551Z" fill="black"/>
<path d="M17.5594 14.4411C18.0772 14.5823 18.6263 14.2842 18.7989 13.7664L21.2936 6.21952C21.4192 5.82727 21.3878 5.38795 21.1681 5.01139C20.9642 4.66621 20.6347 4.41517 20.2738 4.32103C19.9129 4.22689 19.505 4.25827 19.1598 4.46224C18.7832 4.6819 18.5322 5.04277 18.4538 5.45071L16.8377 13.2329C16.7122 13.7664 17.0417 14.2999 17.5594 14.4411Z" fill="black"/>
<path d="M20.1169 15.8846C20.5876 16.1513 21.1838 16.0101 21.4819 15.5551L25.3103 9.71841C25.5299 9.38892 25.6084 8.98097 25.4986 8.57303C25.4044 8.19647 25.1534 7.89836 24.8396 7.71008C24.5258 7.5218 24.1335 7.45905 23.757 7.56888C23.349 7.67871 23.0352 7.96113 22.8469 8.30631L19.7089 14.5352C19.4736 15.0216 19.6462 15.6022 20.1169 15.8846Z" fill="black"/>
<path d="M28.26 39.9687L22.7999 32.7199C21.8114 31.4177 21.2466 29.8016 21.2466 28.0757C21.2466 26.3655 21.8114 24.7337 22.7999 23.4315L28.26 16.1827C28.8248 15.2099 28.4954 13.9547 27.5069 13.3899C26.5341 12.825 25.2789 13.1545 24.7141 14.143L21.3093 20.0581C19.8815 22.5371 17.277 23.9335 14.594 23.9178C11.911 23.9335 9.30649 22.5371 7.8787 20.0581L4.47397 14.143C3.90913 13.1702 2.65393 12.825 1.68115 13.3899C0.708368 13.9547 0.36319 15.2099 0.92803 16.1827L6.38815 23.4315C7.37662 24.7337 7.94146 26.3498 7.94146 28.0757C7.94146 29.7859 7.37662 31.4177 6.38815 32.7199L0.92803 39.9687C0.36319 40.9415 0.692678 42.1967 1.68115 42.7615C2.65393 43.3264 3.90913 42.9969 4.47397 42.0084L7.8787 36.109C9.30649 33.63 11.9267 32.2335 14.594 32.2492C17.277 32.2335 19.8815 33.63 21.3093 36.109L24.7141 42.0241C25.2789 42.9969 26.5341 43.3421 27.5069 42.7772C28.4797 42.1967 28.8248 40.9415 28.26 39.9687Z" fill="black"/>
<path d="M173.644 25.0946C173.848 25.0946 174.036 25.0005 174.036 24.7024C174.036 24.4199 173.879 24.3101 173.644 24.3101H172.906V25.0789H173.644V25.0946ZM174.522 26.4126H173.973L173.518 25.5339H172.906V26.4126H172.435V23.9022H173.644C174.177 23.9022 174.507 24.2317 174.507 24.718C174.507 25.0789 174.303 25.377 173.989 25.4869L174.522 26.4126ZM173.361 23.3373C172.357 23.3373 171.525 24.1689 171.525 25.2044C171.525 26.24 172.341 27.0715 173.361 27.0715C174.381 27.0715 175.197 26.24 175.197 25.2044C175.197 24.1689 174.365 23.3373 173.361 23.3373ZM173.361 27.4795C172.09 27.4795 171.07 26.4596 171.07 25.1887C171.07 23.9335 172.09 22.898 173.361 22.898C174.632 22.898 175.652 23.9179 175.652 25.1887C175.652 26.4596 174.616 27.4795 173.361 27.4795Z" fill="black"/>
<path d="M149.967 28.9073C148.304 28.6406 147.3 28.4052 147.3 27.6992C147.3 27.1971 147.959 26.6322 149.544 26.6322C150.485 26.6322 151.144 26.899 151.505 27.2912C151.756 27.558 152.164 27.6521 152.525 27.558L154.533 27.0088C154.847 26.9304 155.004 26.5695 154.847 26.2871C153.921 24.5925 151.976 23.557 149.544 23.557C145.653 23.557 143.801 25.7536 143.801 27.8718C143.801 30.8685 147.018 31.5275 149.418 31.8884C151.772 32.2493 152.242 32.5631 152.242 33.3162C152.242 34.1007 151.191 34.5243 149.81 34.5243C148.979 34.5243 147.912 34.2419 147.284 33.5202C147.018 33.2064 146.594 33.0495 146.186 33.1593L144.193 33.6927C143.895 33.7712 143.723 34.1007 143.864 34.3988C144.79 36.4385 147.002 37.6623 149.81 37.6623C153.262 37.6623 155.71 35.7795 155.71 33.1122C155.71 30.1782 153.309 29.4564 149.967 28.9073Z" fill="black"/>
<path d="M118.838 26.7264H111.637V22.4116H120.564C120.878 22.4116 121.145 22.1606 121.145 21.8311V19.7914C121.145 19.4776 120.878 19.2109 120.564 19.2109H108.765C108.452 19.2109 108.185 19.4776 108.185 19.7914V36.7523C108.185 37.0661 108.452 37.3328 108.765 37.3328H111.056C111.37 37.3328 111.637 37.0661 111.637 36.7523V29.9428H118.838C119.152 29.9428 119.419 29.6918 119.419 29.3623V27.3069C119.419 26.9774 119.152 26.7264 118.838 26.7264Z" fill="black"/>
<path d="M126.307 19.7914C126.307 19.4776 126.04 19.2109 125.726 19.2109H123.436C123.122 19.2109 122.855 19.4619 122.855 19.7914V36.7523C122.855 37.0661 123.106 37.3328 123.436 37.3328H125.726C126.04 37.3328 126.307 37.0818 126.307 36.7523V19.7914Z" fill="black"/>
<path d="M134.952 34.4302C133.054 34.4302 131.5 32.7827 131.5 30.6489C131.5 28.4523 133.038 26.7891 134.952 26.7891C136.851 26.7891 138.404 28.515 138.404 30.6489C138.388 32.7356 136.851 34.4302 134.952 34.4302ZM141.259 23.8865H139.126C138.812 23.8865 138.545 24.1375 138.545 24.467V25.33C137.494 24.2317 136.066 23.6041 134.419 23.6041C130.92 23.6041 128.017 26.6322 128.017 30.6332C128.017 34.6028 130.92 37.6309 134.419 37.6309C136.066 37.6309 137.494 37.0033 138.545 35.905V36.768C138.545 37.0818 138.796 37.3485 139.126 37.3485H141.259C141.573 37.3485 141.84 37.0975 141.84 36.768V24.4827C141.84 24.1375 141.573 23.8865 141.259 23.8865Z" fill="black"/>
<path d="M165.061 29.127L169.266 24.7338C169.564 24.42 169.344 23.8865 168.905 23.8865H165.799C165.5 23.8865 165.202 24.012 165.014 24.2317L160.919 28.7661V19.7914C160.919 19.4619 160.652 19.2109 160.338 19.2109H158.063C157.734 19.2109 157.483 19.4776 157.483 19.7914V36.7523C157.483 37.0661 157.734 37.3328 158.063 37.3328H160.354C160.668 37.3328 160.935 37.0818 160.935 36.7523V33.4731L162.661 31.6687L165.689 36.8151C165.877 37.1445 166.222 37.3328 166.599 37.3328H169.407C169.831 37.3328 170.082 36.8621 169.847 36.5169L165.061 29.127Z" fill="black"/>
<path d="M48.3118 19.7914C48.3118 19.4776 48.0451 19.2109 47.7313 19.2109H45.4406C45.1268 19.2109 44.86 19.4619 44.86 19.7914L44.8443 26.6636H37.1249L37.1406 19.7914C37.1406 19.4776 36.8895 19.2109 36.56 19.2109H34.2379C33.9241 19.2109 33.6574 19.4619 33.6574 19.7914V36.7523C33.6574 37.0661 33.9241 37.3328 34.2379 37.3328H36.56C36.8738 37.3328 37.1406 37.0661 37.1406 36.7523L37.1249 29.8801H44.8443L44.86 36.7523C44.86 37.0661 45.1268 37.3328 45.4406 37.3328H47.7313C48.0451 37.3328 48.3118 37.0818 48.3118 36.7523V19.7914Z" fill="black"/>
<path d="M70.7956 34.4302C68.8971 34.4302 67.3438 32.7827 67.3438 30.6489C67.3438 28.4523 68.8814 26.7891 70.7956 26.7891C72.7098 26.7891 74.2474 28.515 74.2474 30.6489C74.2317 32.7357 72.6941 34.4302 70.7956 34.4302ZM77.6835 19.7914C77.6835 19.4776 77.4168 19.2109 77.103 19.2109H74.8122C74.4984 19.2109 74.2317 19.4619 74.2317 19.7914V25.1731C73.1805 24.1846 71.8311 23.6041 70.2621 23.6041C66.7633 23.6041 63.8606 26.6322 63.8606 30.6332C63.8606 34.6028 66.7633 37.6309 70.2621 37.6309C71.9096 37.6309 73.3217 37.0033 74.3886 35.905V36.768C74.3886 37.0818 74.6397 37.3485 74.9691 37.3485H77.103C77.4168 37.3485 77.6835 37.0975 77.6835 36.768V19.7914Z" fill="black"/>
<path d="M86.9249 23.557C85.4971 23.4786 84.1007 23.9964 83.1279 25.2045V24.4514C83.1279 24.1376 82.8769 23.8708 82.5474 23.8708H80.4136C80.0998 23.8708 79.833 24.1376 79.833 24.4514V36.7366C79.833 37.0504 80.0841 37.3172 80.4136 37.3172H82.7043C83.0181 37.3172 83.2848 37.0504 83.2848 36.7366V30.7117C83.2848 29.6448 83.4104 28.5465 84.1478 27.7933C84.8068 27.0873 85.7482 26.8676 86.8465 26.9147C87.176 26.9304 87.4584 26.6637 87.4584 26.3342V24.1376C87.4584 23.8395 87.223 23.5727 86.9249 23.557Z" fill="black"/>
<path d="M94.566 34.4773C92.7459 34.4773 91.2554 32.9083 91.2554 30.6332C91.2554 28.3111 92.7459 26.695 94.566 26.695C96.386 26.695 97.8765 28.3111 97.8765 30.6332C97.8765 32.9083 96.386 34.4773 94.566 34.4773ZM94.566 23.5413C90.8317 23.5413 87.8036 26.6009 87.8036 30.6175C87.8036 34.6342 90.8317 37.6466 94.566 37.6466C98.3002 37.6466 101.36 34.6498 101.36 30.6175C101.344 26.6009 98.3002 23.5413 94.566 23.5413Z" fill="black"/>
<path d="M63.1389 23.8865H61.005C60.6912 23.8865 60.4088 24.0748 60.299 24.3729L57.0041 32.9396L53.7092 24.3729C53.5994 24.0748 53.3169 23.8865 53.0031 23.8865H50.8693C50.4614 23.8865 50.1789 24.2944 50.3358 24.671L55.2625 37.5054L54.8546 38.588C54.3525 39.906 53.6308 40.4237 52.2814 40.4551C51.9676 40.4551 51.7009 40.7062 51.7009 41.0356V43.0126C51.7009 43.3264 51.9519 43.5774 52.2657 43.5931C54.7918 43.6716 56.6119 43.091 57.8984 39.7804L63.688 24.671C63.8292 24.2787 63.5468 23.8865 63.1389 23.8865Z" fill="black"/>
</g>
<defs>
<clipPath id="clip0_1:189">
<rect width="175" height="46" fill="white" transform="translate(0.652344)"/>
</clipPath>
</defs>
</svg>
